<?xml version="1.0" encoding="UTF-8" standalone="no"?>
<!-- Created with Inkscape (http://www.inkscape.org/) -->

<svg
   width="127mm"
   height="68mm"
   viewBox="0 0 127 68"
   version="1.1"
   id="svg1"
   inkscape:version="1.3.2 (091e20e, 2023-11-25, custom)"
   sodipodi:docname="logo.svg"
   xmlns:inkscape="http://www.inkscape.org/namespaces/inkscape"
   xmlns:sodipodi="http://sodipodi.sourceforge.net/DTD/sodipodi-0.dtd"
   xmlns="http://www.w3.org/2000/svg"
   xmlns:svg="http://www.w3.org/2000/svg">
  <sodipodi:namedview
     id="namedview1"
     pagecolor="#ffffff"
     bordercolor="#000000"
     borderopacity="0.25"
     inkscape:showpageshadow="2"
     inkscape:pageopacity="0.0"
     inkscape:pagecheckerboard="0"
     inkscape:deskcolor="#d1d1d1"
     inkscape:document-units="mm"
     inkscape:zoom="0.4894542"
     inkscape:cx="193.0722"
     inkscape:cy="709.9745"
     inkscape:window-width="1920"
     inkscape:window-height="991"
     inkscape:window-x="-9"
     inkscape:window-y="-9"
     inkscape:window-maximized="1"
     inkscape:current-layer="layer1" />
  <defs
     id="defs1">
    <rect
       x="470.96707"
       y="635.66107"
       width="210.9239"
       height="120.63114"
       id="rect63" />
    <rect
       x="522.97571"
       y="874.75635"
       width="257.87613"
       height="59.954399"
       id="rect62" />
    <linearGradient
       id="swatch7"
       inkscape:swatch="solid">
      <stop
         style="stop-color:#000000;stop-opacity:1;"
         offset="0"
         id="stop7" />
    </linearGradient>
    <clipPath
       clipPathUnits="userSpaceOnUse"
       id="clipPath52">
      <path
         id="path52"
         style="stroke-width:0.1;stroke-linecap:square;paint-order:markers fill stroke;stop-color:#000000"
         d="m -880.82767,-187.29769 h 1640.84 v 73.28155 h -1640.84 z" />
    </clipPath>
    <rect
       x="63.566109"
       y="143.02374"
       width="634.21637"
       height="268.71127"
       id="rect2" />
    <filter
       inkscape:collect="always"
       style="color-interpolation-filters:sRGB"
       id="filter38"
       x="-0.0045728439"
       y="-0.0038445667"
       width="1.0091457"
       height="1.0076891">
      <feGaussianBlur
         inkscape:collect="always"
         stdDeviation="0.092252912"
         id="feGaussianBlur38" />
    </filter>
    <filter
       inkscape:collect="always"
       style="color-interpolation-filters:sRGB"
       id="filter39"
       x="-0.0043846348"
       y="-0.0073439502"
       width="1.0087693"
       height="1.0146879">
      <feGaussianBlur
         inkscape:collect="always"
         stdDeviation="0.040543946"
         id="feGaussianBlur39" />
    </filter>
    <filter
       inkscape:collect="always"
       style="color-interpolation-filters:sRGB"
       id="filter40"
       x="-0.0044462288"
       y="-0.0068161995"
       width="1.0088925"
       height="1.0136324">
      <feGaussianBlur
         inkscape:collect="always"
         stdDeviation="0.040543946"
         id="feGaussianBlur40" />
    </filter>
    <filter
       inkscape:collect="always"
       style="color-interpolation-filters:sRGB"
       id="filter41"
       x="-0.004648065"
       y="-0.0025737409"
       width="1.0092961"
       height="1.0051475">
      <feGaussianBlur
         inkscape:collect="always"
         stdDeviation="0.040543946"
         id="feGaussianBlur41" />
    </filter>
  </defs>
  <g
     inkscape:label="Vrstva 1"
     inkscape:groupmode="layer"
     id="layer1">
    <text
       xml:space="preserve"
       transform="scale(0.26458333)"
       id="text62"
       style="font-style:normal;font-variant:normal;font-weight:normal;font-stretch:normal;font-size:53.3333px;font-family:'Matura MT Script Capitals';-inkscape-font-specification:'Matura MT Script Capitals';white-space:pre;shape-inside:url(#rect62);display:inline;opacity:1;fill:#000000;stroke:#334e56;stroke-width:0;stroke-linecap:square;stroke-linejoin:miter;stroke-miterlimit:8.7;stroke-dasharray:none;stroke-dashoffset:0;stroke-opacity:1"><tspan
         x="522.97656"
         y="978.35382"
         id="tspan2"><tspan
           dx="0 48.333305 61.666634 47.786423 47.786438 39.999969 51.666641"
           id="tspan1">POTTERY</tspan></tspan></text>
    <g
       id="g63"
       transform="translate(-11.35193,-8.6490899)">
      <path
         style="opacity:1;mix-blend-mode:normal;fill:#000000;stroke:#6e9fad;stroke-width:0;stroke-linecap:square;stroke-linejoin:miter;stroke-miterlimit:8.7;stroke-dasharray:none;stroke-dashoffset:0;stroke-opacity:1;filter:url(#filter38)"
         id="path29"
         d="m 41.350318,42.687845 c 0.176099,-0.16553 0.365091,-0.31834 0.528302,-0.49659 0.75385,-0.82331 1.457621,-1.76789 2.108464,-2.66422 0.807051,-1.11145 1.925762,-2.71519 2.617166,-3.89524 0.433406,-0.73971 0.810215,-1.51116 1.215321,-2.26674 1.612294,-3.28403 3.21954,-6.59275 4.380082,-10.07043 0.152675,-0.45751 0.27672,-0.92408 0.415081,-1.38612 0.295068,-1.00014 0.533445,-2.01614 0.755854,-3.03453 0.05157,-0.23613 0.09766,-0.47341 0.14751,-0.7099 0.03719,-0.1764 0.05294,-0.35901 0.113596,-0.52877 0.01622,-0.0454 0.07283,-0.0633 0.109249,-0.0949 -1.100788,-0.46501 -2.116566,-1.24719 -3.302359,-1.39505 -0.353248,-0.044 0.223406,0.67667 0.310118,1.02193 0.128336,0.51098 0.22938,1.0285 0.334515,1.54475 0.228682,1.12294 0.647105,3.34363 0.80301,4.40341 0.1807,1.22831 0.320175,2.46234 0.480261,3.69352 0.289613,3.44944 0.564111,5.73496 0.507127,9.23492 -0.093,5.7125 -0.872429,11.38565 -2.15602,16.94849 -0.369414,1.60096 -0.847987,3.17477 -1.271982,4.76215 -1.040387,3.16326 -1.309984,4.381 -2.730347,7.28416 -0.907142,1.85415 -1.664189,3.25049 -3.321886,4.52361 -1.876911,1.44151 -2.603553,1.27527 -4.886475,1.6754 -1.056016,-0.0945 -2.152082,0.0196 -3.16805,-0.28358 -2.547014,-0.76007 -4.751919,-2.07243 -6.841431,-3.64249 -2.98258,-2.2411 -5.338514,-4.0497 -7.729713,-6.90445 -0.862965,-1.03027 -1.522843,-2.21485 -2.284264,-3.32227 -0.779528,-2.26748 -1.579925,-3.2963 -0.843327,-5.6842 0.882724,-2.86162 4.189306,-4.92815 6.8224,-5.83624 1.691428,-0.58334 3.469478,-0.8761 5.204216,-1.31415 2.138291,-0.27624 4.268084,-0.62897 6.414868,-0.82871 2.237878,-0.20822 4.485095,-0.31072 6.731077,-0.39443 6.674207,-0.24874 13.350269,-0.0175 20.014369,0.3457 0,0 -2.568895,-1.87965 -2.568895,-1.87965 v 0 c -4.340157,-0.05 -8.679998,-0.0777 -13.02026,-0.003 -4.314272,0.0744 -8.827177,0.18678 -13.125899,0.5353 -2.215828,0.17964 -4.421021,0.47248 -6.63153,0.70872 -1.874713,0.37007 -3.793636,0.56181 -5.624137,1.11023 -2.717385,0.81413 -6.324882,3.08732 -7.180253,6.02296 -0.732312,2.51331 0.18342,3.68766 1.053442,6.01977 0.816261,1.14835 1.534584,2.37303 2.448788,3.44505 4.089868,4.7959 9.497314,8.38959 14.970141,11.38744 1.530357,0.83828 3.103192,1.64486 4.774504,2.14627 1.061897,0.31859 2.209419,0.18696 3.314128,0.28043 2.385589,-0.45751 3.102864,-0.27471 5.016701,-1.84467 1.69431,-1.38986 2.328355,-2.7523 3.193309,-4.73557 1.33418,-3.05918 1.518777,-4.16119 2.464663,-7.47735 0.384183,-1.61468 0.810622,-3.21988 1.152549,-4.84402 0.763251,-3.62541 1.408133,-7.60234 1.833734,-11.27713 0.217099,-1.87451 0.426601,-3.75284 0.510992,-5.63799 0.115054,-2.57008 -0.127672,-6.52626 -0.251129,-9.13145 -0.06894,-1.19329 -0.101311,-2.38926 -0.206833,-3.57988 -0.06049,-0.68255 -0.48841,-3.50149 -0.608306,-4.31853 -0.07364,-0.5018 -0.145388,-1.00387 -0.218509,-1.50574 -0.04962,-0.34055 0.112218,-0.79828 -0.149701,-1.02151 -1.082955,-0.92298 -2.432433,-1.47716 -3.648652,-2.21574 -0.199969,0.47818 -0.210798,1.0202 -0.297084,1.5291 -0.174866,1.03136 -0.368478,2.06076 -0.621165,3.07622 -0.121642,0.46384 -0.231415,0.93095 -0.364927,1.39151 -1.018159,3.51228 -2.460619,6.89142 -4.156196,10.12705 -0.413031,0.74115 -0.800751,1.49699 -1.239094,2.22346 -0.811446,1.34482 -1.699536,2.5914 -2.685098,3.81292 -0.844484,1.04666 -1.744199,2.10978 -2.903471,2.82181 z" />
      <path
         id="path30"
         style="opacity:0.98;fill:#000000;stroke:#6e9fad;stroke-width:0;stroke-linecap:square;stroke-linejoin:miter;stroke-miterlimit:8.7;stroke-dasharray:none;stroke-dashoffset:0;stroke-opacity:1;filter:url(#filter39)"
         d="m 68.295954,34.039785 v 5.2e-4 5.2e-4 c -0.02016,0.0532 -0.03536,0.10776 -0.04806,0.16329 -1.159863,-0.0159 -2.319881,-0.0121 -3.479891,-0.0248 -1.528876,0.0438 -3.116709,0.21145 -4.39353,1.14257 -0.245382,0.17895 -0.457557,0.39962 -0.686263,0.59944 -1.277092,1.30484 -2.250787,2.90163 -2.901115,4.60696 -0.114126,0.29926 -0.19672,0.60934 -0.295073,0.91415 -0.04607,0.2781 -0.124419,0.55301 -0.137976,0.83458 -0.06606,1.37207 0.796046,2.07133 1.844332,2.7311 2.243579,1.23791 2.673973,2.02254 4.496883,2.23552 0.211892,0.0248 0.426517,0.0607 0.638721,0.0388 0.796786,-0.0824 1.497983,-0.49428 2.166793,-0.89246 1.561534,-0.9535 2.602279,-2.46717 3.595646,-3.96099 0.122656,-0.20363 0.24096,-0.40967 0.357601,-0.6165 0.13091,0.26872 0.27145,0.50919 0.460954,0.84956 1.126854,1.65335 2.372787,2.11516 4.390429,3.12849 0.0913,6.5e-4 0.182588,0.002 0.273885,5.1e-4 0.08004,-0.002 0.159992,-0.006 0.239262,-0.0181 0.06283,-0.002 0.124569,-0.01 0.187069,-0.016 0.03658,6e-4 0.07202,-0.008 0.108004,-0.0139 0.111165,-0.0178 0.224497,-0.0255 0.333313,-0.0558 0.0695,-0.0174 0.139906,-0.0297 0.211356,-0.0357 0.08103,-0.016 0.160656,-0.04 0.243396,-0.046 0.0042,-7e-5 0.0082,-5.4e-4 0.0124,0 6.23e-4,0 -1e-4,0.002 5.16e-4,0.002 0.04256,-0.008 0.07977,-0.0394 0.123507,-0.0444 0.05077,-0.0118 0.100205,-0.0248 0.149345,-0.0434 0.05661,-0.0165 0.110042,-0.0452 0.167948,-0.0584 0.07042,-0.0236 0.14091,-0.0468 0.21084,-0.0718 0.0663,-0.0169 0.134457,-0.0212 0.195337,-0.0558 0.04724,-0.0206 0.09425,-0.0442 0.14211,-0.0631 0.02803,-0.0111 0.05762,-0.0179 0.0863,-0.0269 0.01324,-0.004 0.02664,-0.009 0.03979,-0.0134 0.01902,-0.003 0.0032,-6e-5 0.03669,-0.016 0.03659,-0.0174 0.0747,-0.0322 0.110588,-0.0512 0.07457,-0.0296 0.147495,-0.0613 0.219625,-0.0966 0.06611,-0.0351 0.131826,-0.0706 0.192236,-0.11524 0.06226,-0.0459 0.122615,-0.095 0.184485,-0.14107 0.03808,-0.0286 0.07642,-0.0566 0.109554,-0.0909 0.04602,-0.0434 0.09647,-0.0815 0.141593,-0.12558 0.01215,-0.0114 0.03324,-0.0329 0.04858,-0.0419 0.0042,-0.002 -0.0082,0.006 -0.01033,0.0103 -0.0018,0.004 0.0066,-0.006 0.0098,-0.009 0.01133,-0.0108 0.02246,-0.0222 0.03411,-0.0326 0.0079,-0.007 0.01609,-0.0142 0.02429,-0.0212 0.06121,-0.0473 0.11942,-0.0982 0.1788,-0.14779 0.02406,-0.0181 0.04738,-0.0372 0.07183,-0.0548 0.03475,-0.025 0.06788,-0.0387 0.09715,-0.0713 0.02195,-0.0178 0.04285,-0.0366 0.06408,-0.0553 l -2.646867,-1.73116 c -0.08068,0.0426 -0.161164,0.0851 -0.241846,0.12764 -0.770783,0.38377 -1.549762,0.7753 -2.381766,1.00666 -0.09137,0.0187 -0.15961,0.0312 -0.238746,0.0486 -0.151815,-0.25105 -0.29317,-0.5072 -0.409794,-0.80408 -0.101608,-0.25865 -0.162507,-0.53111 -0.236678,-0.79892 -0.250386,-0.90406 -0.44659,-1.8224 -0.594796,-2.74867 -0.114293,-0.86947 -0.212337,-1.63638 -0.134875,-2.51199 0.0079,-0.0889 0.01934,-0.17747 0.02997,-0.26613 0.324822,0.026 0.648688,0.0591 0.972034,0.0992 0.0015,-0.0274 0.0034,-0.0548 0.0057,-0.0822 l -3.040641,-2.27583 c -0.347226,-0.0114 -0.694486,-0.0182 -1.041797,-0.0243 -0.0953,-0.057 -0.191938,-0.11188 -0.286804,-0.1695 z m -0.529683,2.32958 c -0.502298,1.44453 -1.184183,2.81647 -1.934766,4.14755 -0.957886,1.45257 -1.978142,2.9092 -3.517098,3.79822 -0.809894,0.42562 -1.44927,0.73812 -2.319238,0.6537 -0.161059,-0.26563 -0.264621,-0.56784 -0.277503,-0.92035 -0.0097,-0.26609 0.05545,-0.52998 0.0832,-0.79479 0.08558,-0.29719 0.154946,-0.59942 0.256832,-0.89142 0.585949,-1.67928 1.548427,-3.21048 2.84117,-4.4328 0.223663,-0.17692 0.434477,-0.37104 0.670761,-0.53072 1.241622,-0.83904 2.738455,-0.99445 4.196642,-1.02939 z m -6.741191,9.57822 c 0.254654,0.14502 0.510223,0.28826 0.761711,0.43822 -0.251505,-0.13297 -0.512268,-0.2774 -0.761711,-0.43822 z m 14.423409,0.13333 c -0.0082,0.001 -0.01654,0.003 -0.02481,0.004 0.02177,0.008 0.0446,0.0169 0.02481,-0.004 z" />
      <path
         id="path31"
         style="opacity:0.98;fill:#000000;stroke:#6e9fad;stroke-width:0;stroke-linecap:square;stroke-linejoin:miter;stroke-miterlimit:8.7;stroke-dasharray:none;stroke-dashoffset:0;stroke-opacity:1;filter:url(#filter40)"
         d="m 86.901537,34.851105 -5.17e-4,5.2e-4 c -0.07547,0.004 -0.153039,0.0185 -0.225826,0.0264 -0.151958,0.0164 -0.297312,0.0709 -0.445968,0.10645 -1.153241,0.55284 -1.566605,1.18782 -2.003495,2.3797 -0.04502,0.13827 -0.08371,0.2782 -0.126607,0.41703 -1.671651,-1.13402 -2.468698,-1.98266 -4.129981,-2.03399 -0.124007,0.012 -0.250126,0.0106 -0.37207,0.0362 -0.657281,0.1377 -1.139509,0.70249 -1.549776,1.18649 -0.105441,0.15595 -0.222005,0.30524 -0.31626,0.46819 -0.229304,0.39642 -0.291725,0.62827 -0.459403,1.05161 -0.267335,0.67491 -0.16243,0.39908 -0.45837,1.07177 -0.07295,0.1658 -0.143362,0.33281 -0.214974,0.49919 -0.401339,0.89785 -0.89725,1.75607 -1.488282,2.543 -0.557411,0.71745 -1.187506,1.41348 -2.021065,1.81023 l 2.066541,1.32343 c 0.09766,-0.0138 0.196235,-0.0236 0.291455,-0.0501 0.0695,-0.0174 0.139906,-0.0297 0.211356,-0.0357 0.08103,-0.016 0.160656,-0.04 0.243396,-0.046 0.0042,-7e-5 0.0082,-5.4e-4 0.0124,0 6.23e-4,0 -1e-4,0.002 5.16e-4,0.002 0.04256,-0.008 0.07977,-0.0394 0.123507,-0.0444 0.05077,-0.0118 0.100205,-0.0248 0.149345,-0.0434 0.05661,-0.0165 0.110045,-0.0452 0.167948,-0.0584 0.07042,-0.0236 0.14091,-0.0468 0.21084,-0.0718 0.0663,-0.0169 0.134457,-0.0212 0.195337,-0.0558 0.04724,-0.0206 0.09425,-0.0442 0.14211,-0.0631 0.02803,-0.0111 0.05762,-0.0179 0.0863,-0.0269 0.01324,-0.004 0.02664,-0.009 0.03979,-0.0134 0.01902,-0.003 0.0032,-1.2e-4 0.03669,-0.016 0.03659,-0.0174 0.0747,-0.0322 0.110588,-0.0512 0.07457,-0.0296 0.147495,-0.0613 0.219625,-0.0966 0.06611,-0.0351 0.131826,-0.0706 0.192236,-0.11524 0.06226,-0.0459 0.122615,-0.095 0.184485,-0.14107 0.03808,-0.0286 0.07642,-0.0566 0.109554,-0.0909 0.04602,-0.0434 0.09647,-0.0815 0.141593,-0.12558 0.01215,-0.0114 0.03324,-0.0329 0.04858,-0.0419 0.0042,-0.002 -0.0082,0.006 -0.01033,0.0103 -0.0018,0.004 0.0066,-0.006 0.0098,-0.009 0.01133,-0.0108 0.02246,-0.0227 0.03411,-0.0331 0.0079,-0.007 0.01609,-0.0146 0.02429,-0.0217 0.06121,-0.0473 0.11942,-0.0982 0.1788,-0.1478 0.02406,-0.0181 0.04738,-0.0377 0.07183,-0.0553 0.03475,-0.025 0.06788,-0.0387 0.09715,-0.0713 0.04847,-0.0392 0.09265,-0.0839 0.143661,-0.11988 0.0585,-0.0477 0.10901,-0.10297 0.16278,-0.15607 0.02066,-0.0171 0.04078,-0.0348 0.06201,-0.0512 0.04032,-0.0311 0.08267,-0.0594 0.125574,-0.0873 0.380266,-0.58969 0.717726,-1.20604 1.00459,-1.84692 0.209794,-0.53495 0.449291,-1.05776 0.663008,-1.59111 0.163105,-0.40705 0.228298,-0.65008 0.450619,-1.02578 0.08648,-0.14616 0.194983,-0.27799 0.292488,-0.41703 0.0263,-0.0284 0.05517,-0.0573 0.08217,-0.0863 0.172989,0.87499 0.349863,1.74925 0.526583,2.62361 0.155869,0.79459 0.227588,1.60325 0.235644,2.41226 -0.20203,1.28049 -0.106697,0.57472 2.666504,1.56631 0.002,-0.0131 0.0044,-0.0272 0.0062,-0.0403 0.02002,-0.14388 0.03675,-0.28823 0.05323,-0.43253 1.1e-4,-0.0534 -3.45e-4,-0.10681 0,-0.16019 0.0038,-0.20826 0.01475,-0.41616 0.02325,-0.62426 0.0021,-0.23094 0.01325,-0.46103 0.04186,-0.69039 0.01972,-0.15317 0.04284,-0.30611 0.07183,-0.45786 0.05083,-0.26628 0.011,-0.049 0.05788,-0.26406 0.0081,-0.037 0.01492,-0.0745 0.02222,-0.11162 0.02098,-0.10696 0.04612,-0.21224 0.06873,-0.31885 0.01677,-0.0791 0.03137,-0.1582 0.04858,-0.23719 0.0068,-0.0314 0.01524,-0.0618 0.02274,-0.093 0.04894,-0.21295 0.08666,-0.42766 0.127124,-0.64234 0.02896,-0.11291 0.05819,-0.22608 0.09095,-0.33796 0.01982,-0.0677 0.04441,-0.13384 0.06408,-0.20154 0.01045,-0.0359 0.01934,-0.0728 0.02894,-0.10904 0.07327,-0.27099 0.131305,-0.54757 0.264584,-0.79788 0.06033,-0.10989 0.116327,-0.2238 0.180867,-0.33125 0.06142,-0.10225 0.135648,-0.19631 0.199988,-0.29662 0.15087,-0.19633 0.295475,-0.39743 0.454236,-0.58756 0.129532,-0.13775 0.245415,-0.28775 0.375171,-0.4253 0.123682,-0.13568 0.248612,-0.27007 0.376721,-0.40152 0.119513,-0.11803 0.229367,-0.24872 0.379305,-0.33022 0.03703,-0.0172 0.07293,-0.0378 0.111104,-0.0522 0.05791,-0.0218 0.117416,-0.0337 0.17725,-0.0429 0.03464,-0.0366 0.08191,-0.0709 0.143661,-0.0987 0.05553,-0.025 0.116479,-0.0378 0.171049,-0.0646 0.06097,-0.0317 0.126623,-0.0415 0.194303,-0.0408 0.06164,0.008 0.122792,0.0192 0.185002,0.0212 0.0585,-0.005 0.110538,0.0241 0.166398,0.0341 0.0608,-0.002 0.117449,0.0218 0.172599,0.0444 0.107242,0.0479 0.160642,0.14737 0.198442,0.25218 0.0153,0.0555 0.0453,0.10378 0.0605,0.15968 0.006,0.0205 0.009,0.0417 0.014,0.0625 0.0106,0.0529 0.008,0.1067 0.0103,0.1602 0.001,0.0274 0.005,0.0549 0.008,0.0822 0.01,0.0855 7.5e-4,0.17174 0.008,0.25734 0.009,0.0819 0.0246,0.16263 0.0346,0.24443 0.0138,0.10783 0.0154,0.21602 0.0145,0.32453 -0.001,0.0796 -8.7e-4,0.15966 -0.001,0.23926 -1.7e-4,0.0454 1.6e-4,0.0906 5.2e-4,0.13591 0.0166,0.12947 0.034,0.25885 0.0481,0.38861 0.0222,0.22993 0.0198,0.46074 0.0258,0.69143 0.0128,0.33422 0.015,0.66883 0.0274,1.00304 0.01,0.15526 0.0168,0.31076 0.0238,0.46612 0.0664,0.51637 0.12483,1.03382 0.1726,1.55029 0.081,0.72247 -0.016,1.47366 0.25735,2.16421 0.0675,0.1704 0.13352,0.29413 0.20722,0.41186 0.01,0.0139 0.0192,0.0277 0.0274,0.0419 0.0729,0.11246 0.15148,0.22092 0.24959,0.36329 0.66013,0.73528 1.58065,1.28422 2.49649,1.76681 0.0854,0.003 0.17092,0.009 0.25632,0.016 0.0401,0.001 0.0801,0.004 0.11989,0.007 0.0269,-0.007 0.0557,-0.0111 0.0878,-0.0124 0.0384,-0.002 0.0805,10e-4 0.12609,0.009 0.0478,0.008 0.095,0.0191 0.14159,0.0315 l -1.84175,-1.48259 c 0.8346,0.4893 1.66956,0.97838 2.50424,1.46761 -0.1126,-0.0785 -0.21094,-0.17648 -0.31626,-0.26459 -0.28834,-0.3438 -0.59207,-0.68575 -0.7214,-1.12809 -0.15981,-0.54653 -0.0652,-1.13422 -0.16847,-1.68879 -0.0917,-0.83271 -0.20865,-1.65693 -0.35243,-2.48253 -0.0794,-0.45574 -0.2952,-1.65614 -0.40773,-2.09962 -0.0837,-0.32973 -0.19853,-0.65075 -0.29765,-0.97616 -0.12549,-0.29854 -0.23597,-0.60367 -0.37621,-0.89556 -1.07645,-2.24058 -1.83054,-2.1854 -4.696868,-3.73207 -0.06443,-0.0348 -0.137949,-0.0412 -0.213423,-0.0372 z m 2.136303,3.3104 c -4.61e-4,0.009 -0.0011,0.0182 -0.0016,0.0274 0.0014,0.0189 -5.31e-4,0.0385 -0.0015,0.0579 0.0058,0.009 0.0067,0.0199 0.01033,0.03 0.0032,0.007 0.0049,0.0145 0.0078,0.0217 -1.2e-4,-0.0202 7.68e-4,-0.0403 0,-0.0605 -0.0027,-0.0261 -0.0084,-0.0514 -0.01499,-0.0765 z m -0.0031,0.10076 c 5e-6,0.007 -8.66e-4,0.0132 0,0.0196 6.15e-4,0.005 0.0013,-0.01 0.001,-0.015 -3.3e-5,-8.3e-4 -7.3e-4,-0.003 -0.001,-0.005 z m -2.996716,4.37803 v 10e-4 c -1.3e-5,10e-4 7e-6,0.003 0,0.004 0.0014,-6.8e-4 0.0027,-0.002 0.0041,-0.003 -0.0014,-4.9e-4 -0.0027,-10e-4 -0.0041,-0.002 z m -0.503846,2.99258 c -0.01233,0.0119 -0.02339,0.0211 -0.03514,0.0315 4e-6,0.003 -4e-6,0.005 0,0.008 0.01013,0.004 0.02001,0.008 0.02997,0.0119 0.0019,-0.017 0.0034,-0.0341 0.0052,-0.0512 z m 8.91832,2.52388 c 0.0181,0.0126 0.0379,0.0228 0.0563,0.0346 8.7e-4,-2e-5 0.002,2e-5 0.003,0 -0.0198,-0.0116 -0.0397,-0.023 -0.0594,-0.0346 z m 0.46509,0.92346 c -0.004,0.003 -0.008,0.005 -0.0114,0.008 0.0218,0.0123 0.0462,0.0248 0.0677,0.0372 z" />
      <path
         id="path32"
         style="opacity:0.98;fill:#000000;stroke:#6e9fad;stroke-width:0;stroke-linecap:square;stroke-linejoin:miter;stroke-miterlimit:8.7;stroke-dasharray:none;stroke-dashoffset:0;stroke-opacity:1;filter:url(#filter41)"
         d="m 100.67456,10.247015 5.2e-4,5.2e-4 c -0.27252,-0.003 -0.56216,0.11598 -0.825282,0.19637 -2.37639,0.72603 -3.05349,2.96906 -3.86746,5.03173 -0.20552,0.78763 -0.44607,1.5672 -0.6165,2.36317 -0.60218,2.81233 -0.83334,5.66954 -0.99012,8.53436 -0.15688,2.86687 -0.15149,3.31492 -0.23203,6.14226 -0.0376,2.91671 0.0452,5.85188 0.42323,8.7483 0.0328,0.25092 0.0659,0.47611 0.10025,0.68885 -8.5e-4,3.5e-4 -0.002,8e-4 -0.003,10e-4 -0.48496,0.17749 -0.96258,0.37568 -1.45469,0.53227 -1.16503,0.37074 -2.37395,0.61378 -3.59409,0.63459 0.0278,0.0405 0.0456,0.0828 0.0594,0.12609 0.0651,0.0751 0.12442,0.15583 0.18397,0.23512 0.0533,0.075 0.0997,0.15481 0.15917,0.22531 0.0599,0.0503 0.13311,0.0875 0.18861,0.14315 0.0212,0.0213 0.0385,0.0462 0.0579,0.0692 0.0388,0.0798 0.0585,0.15245 0.11369,0.22015 0.0126,0.0158 0.0241,0.0321 0.0372,0.0475 0.0518,0.0608 0.007,-0.003 0.0687,0.0744 0.0447,0.0556 0.0825,0.1149 0.11937,0.1757 0.005,0.008 0.0104,0.0155 0.0155,0.0233 l 0.98806,0.7183 c 0.0213,0.008 0.0423,0.0175 0.0641,0.0248 0.10075,0.0318 0.20419,0.0584 0.30851,0.076 0.0777,0.01 0.15651,0.005 0.23461,0.004 0.14176,-0.007 0.28257,0.005 0.42375,0.0155 0.049,0.002 0.0978,0.004 0.14624,0.008 0.0211,-0.004 0.037,-0.013 0.061,-0.014 0.0384,-0.002 0.0805,1.6e-4 0.12609,0.009 0.0471,0.008 0.093,0.0211 0.13901,0.0336 0.006,4e-4 0.0117,6.3e-4 0.0176,10e-4 0.0263,0.003 0.0528,0.004 0.0791,0.006 0.27213,-0.0411 0.54526,-0.0965 0.81804,-0.15503 0.0112,-0.0277 0.0405,-0.0304 0.0785,-0.015 0.39753,-0.0875 0.7937,-0.18741 1.18288,-0.30489 0.1163,0.45136 0.23868,0.90136 0.37775,1.34617 0.0358,0.11445 0.0807,0.22574 0.11524,0.34054 0.016,0.0534 -0.0144,0.13993 0.0362,0.1633 1.03864,0.47949 2.10351,0.89967 3.16105,1.33635 0.002,-0.30677 0.003,-0.61362 10e-4,-0.92035 -0.004,-0.42207 -0.0105,-0.84412 0.001,-1.26607 0.0157,-0.34665 0.0514,-0.69216 0.0584,-1.03922 0.002,-0.11269 2e-5,-0.16353 0.0109,-0.27337 0.0175,-0.17792 0.0624,-0.35166 0.1018,-0.52555 0.0262,-0.12271 0.0498,-0.24557 0.0775,-0.36793 0.0531,-0.23475 0.11422,-0.46824 0.16382,-0.70383 h -5.2e-4 c 0.0485,-0.2303 0.18048,-0.33355 0.30282,-0.33332 0.0909,1.8e-4 0.1759,0.0581 0.21756,0.1633 0.0302,-0.0194 0.0613,-0.0375 0.0909,-0.0579 -0.0105,0.29673 0.17959,0.43445 0.44907,0.58808 3.64665,2.07893 2.57371,1.6378 4.57336,2.39107 1.62542,0.58026 3.29573,1.03364 4.96508,1.46968 0.18684,0.0443 0.37384,0.0885 0.56069,0.1328 l -3.07372,-2.34249 c -0.17716,-0.0405 -0.3546,-0.081 -0.53175,-0.12144 -0.55469,-0.13908 -1.10803,-0.28547 -1.65985,-0.4377 0.70572,-0.0295 1.40839,-0.087 2.09342,-0.27698 0.97781,-0.37005 1.59683,-0.83765 1.99832,-1.83503 0.0525,-0.17854 0.12265,-0.35259 0.15762,-0.53537 0.18756,-0.98028 -0.0406,-1.99022 -0.39171,-2.9037 -0.91474,-1.52086 -0.39871,-0.76225 -3.10524,-2.2009 0.19935,-0.29464 0.41377,-0.61342 0.67851,-0.99942 1.6249,-2.61307 3.3152,-5.33855 3.66386,-8.46977 0.24899,-2.23617 -0.026,-2.80162 -0.42684,-5.03328 -0.51414,-2.19846 -1.28353,-4.32113 -2.31718,-6.32778 -0.46622,-0.90517 -0.95137,-1.75474 -1.6371,-2.51251 -0.26546,-0.29333 -0.58568,-0.53238 -0.8785,-0.7984 -1.39325,-0.7403 -2.71197,-1.64286 -4.18011,-2.22054 -0.0853,-0.0336 -0.17427,-0.0482 -0.2651,-0.0491 z m 2.36833,2.36626 c 0.078,0.002 0.16649,0.0143 0.25735,0.0274 0.42273,0.53826 0.77886,1.11237 1.12965,1.7353 1.11521,1.98053 1.94961,4.09481 2.49287,6.30297 0.38521,2.15517 0.65077,2.72216 0.42116,4.88394 -0.32767,3.08488 -1.98653,5.78195 -3.58376,8.3566 -0.67108,0.9575 -1.13059,1.64531 -1.69137,2.36419 -1.26168,0.30304 -2.481872,0.73176 -3.545522,1.51671 -0.21422,0.18602 -0.4399,0.35986 -0.64286,0.5581 -0.22495,0.21973 -0.41659,0.44272 -0.59169,0.6687 -0.16182,-1.66589 -0.24107,-3.34041 -0.22893,-5.01779 0.0505,-3.11194 0.13793,-6.11616 0.46457,-9.217 0.18557,-1.76165 0.43463,-3.59409 0.84388,-5.32113 0.18315,-0.77289 0.43988,-1.52658 0.65991,-2.28978 0.70798,-1.62925 1.216692,-3.20235 2.836522,-4.1584 0.31829,-0.18786 0.67206,-0.32591 1.03404,-0.40049 0.0404,-0.008 0.0897,-0.01 0.14418,-0.009 z m 2.94659,25.68733 c 0.15593,0.54461 0.20993,1.11958 0.11576,1.67845 -0.0267,0.15865 -0.0865,0.30959 -0.12971,0.46457 -0.33476,0.84718 -0.97857,1.25369 -1.81746,1.50843 -1.12653,0.2372 -2.28402,0.2149 -3.42873,0.26562 0.0184,-0.0131 0.0369,-0.0261 0.0553,-0.0393 1.48663,-1.06159 1.88798,-1.38665 3.14141,-2.78794 0.27717,-0.30987 0.49153,-0.56453 0.69763,-0.8139 0.44901,-0.11259 0.90595,-0.20085 1.36581,-0.27595 z m -2.28927,6.1836 c 0.1297,0.0797 0.24717,0.14949 0.38448,0.23564 0.11619,0.0729 -0.2455,-0.13143 -0.38034,-0.15658 -0.091,-0.017 -0.18348,0.0386 -0.27595,0.0341 -0.0159,-8e-4 0.005,-0.0313 0.007,-0.047 0.0882,-0.022 0.1764,-0.0441 0.26458,-0.0661 z" />
      <path
         style="opacity:1;fill:#000000;stroke:#6e9fad;stroke-width:0;stroke-linecap:square;stroke-linejoin:miter;stroke-miterlimit:8.7;stroke-dasharray:none;stroke-dashoffset:0;stroke-opacity:1"
         id="path62"
         d="m 121.95537,37.354515 c -0.74622,0.0666 -1.49691,0.02 -2.24356,0.064 -0.30445,0.0179 -0.60785,0.0546 -0.91177,0.0818 -1.52701,0.14846 -3.0463,0.46827 -4.50865,1.00108 -0.36194,0.13188 -0.7236,0.26826 -1.07361,0.43744 -0.34031,0.1645 -0.66258,0.37462 -0.99386,0.56192 -1.11335,0.75689 -2.22839,1.70192 -2.70484,3.14571 -0.0609,0.18445 -0.0908,0.38054 -0.1362,0.57079 -0.0221,0.38447 -0.0643,0.57791 0.0283,0.94954 0.0632,0.25407 0.22434,0.61451 0.43041,0.75888 2.80338,1.96412 1.96063,1.68148 3.54322,2.10351 0.39291,0.008 0.87951,0.036 1.27003,-0.0273 0.4242,-0.0687 0.96378,-0.2597 1.3569,-0.44561 0.42678,-0.20186 0.97476,-0.54764 1.38285,-0.79472 0.8033,-0.51948 1.58456,-1.08865 2.30018,-1.75867 0.3631,-0.33997 0.47645,-0.47717 0.81284,-0.84404 0.39555,-0.45448 0.82144,-0.89611 1.14632,-1.42455 0.1797,-0.29225 0.2178,-0.41867 0.35079,-0.73888 0.14136,-0.35083 0.22006,-0.70891 0.21708,-1.09381 -4.2e-4,-0.0552 0.0409,-0.13991 -0.002,-0.16573 -0.94161,-0.57267 -1.9212,-1.05858 -2.8818,-1.58787 -0.41985,1.02357 -0.79204,2.08505 -1.00529,3.19357 -0.0481,0.24997 -0.0771,0.50426 -0.1157,0.75639 -0.0487,1.03095 0.021,2.13222 0.57706,2.99476 0.38196,0.59241 0.71915,0.79854 1.24187,1.23996 1.04957,0.69398 2.71264,1.9625 4.0903,2.58472 0.5977,0.26995 1.27873,0.51514 1.93182,0.43268 0.16537,-0.0209 0.32336,-0.0902 0.48503,-0.13527 0.14261,-0.0768 0.29286,-0.13718 0.42783,-0.23048 0.32674,-0.22589 0.52864,-0.47431 0.79886,-0.7803 0.31254,-0.35391 0.60511,-0.71816 0.88502,-1.10603 0.16242,-0.2229 0.28308,-0.47331 0.39215,-0.7334 0,0 -2.725,-1.76066 -2.725,-1.76066 v 0 c -0.0779,0.24291 -0.16954,0.47564 -0.30286,0.68697 -0.42492,0.67032 -0.92433,1.36925 -1.57742,1.75643 -0.12317,0.073 -0.25763,0.11749 -0.38645,0.17623 -0.14273,0.0275 -0.28365,0.0743 -0.42819,0.0826 -0.5996,0.0342 -1.21809,-0.19543 -1.76262,-0.45572 -0.26847,-0.12833 -1.02619,-0.62091 -0.7891,-0.42733 0.52169,0.42593 1.09936,0.75296 1.64905,1.12945 -0.43171,-0.33692 -0.86418,-0.62099 -1.21256,-1.0769 -0.59,-0.77209 -0.71856,-1.79033 -0.67408,-2.77918 0.0322,-0.24373 0.0532,-0.48976 0.0967,-0.73117 0.17838,-0.98941 0.52004,-2.09043 1.07005,-2.88844 -0.89911,-0.58531 -1.81018,-1.14696 -2.69734,-1.75594 -0.0312,-0.0214 0.0802,-0.0499 0.10723,-0.022 0.0369,0.0381 0.0262,0.11043 0.0333,0.16694 0.0344,0.27537 -0.0427,0.52962 -0.11663,0.78879 -0.0457,0.11446 -0.0853,0.23242 -0.13717,0.3434 -0.31153,0.66711 -0.80541,1.19798 -1.24862,1.74521 -0.26318,0.29053 -0.49887,0.55919 -0.77707,0.83169 -0.68462,0.67063 -1.43489,1.24662 -2.2255,1.73825 -0.22174,0.13219 -0.43902,0.27481 -0.66521,0.39661 -1.05964,0.57048 -2.11471,0.86297 -3.28064,0.60674 -1.28305,-0.48843 -0.71678,-0.32024 1.67725,1.33308 0.1057,0.073 -0.21918,-0.13697 -0.30848,-0.23475 -0.27675,-0.30298 -0.31452,-0.73726 -0.32222,-1.14819 0.0291,-0.17591 0.0423,-0.35636 0.0874,-0.52775 0.26322,-0.99942 0.92184,-1.82827 1.63397,-2.44188 0.25884,-0.22302 0.54084,-0.40806 0.81126,-0.6121 0.32193,-0.17976 0.63555,-0.38073 0.96579,-0.53926 1.76386,-0.84673 3.68745,-1.19797 5.58387,-1.31797 1.12611,-0.008 2.25291,-0.003 3.37809,0.0569 z" />
      <text
         xml:space="preserve"
         transform="matrix(0.43137266,0,0,0.40211795,-122.86456,-207.00749)"
         id="text63"
         style="font-style:normal;font-variant:normal;font-weight:normal;font-stretch:normal;font-size:28.8649px;font-family:'Matura MT Script Capitals';-inkscape-font-specification:'Matura MT Script Capitals';white-space:pre;shape-inside:url(#rect63);display:inline;opacity:1;fill:#000000;stroke:#334e56;stroke-width:0;stroke-linecap:square;stroke-linejoin:miter;stroke-miterlimit:8.7;stroke-dasharray:none;stroke-dashoffset:0;stroke-opacity:1"><tspan
           x="470.9668"
           y="661.99448"
           id="tspan4"><tspan
             style="font-family:sans-serif;-inkscape-font-specification:sans-serif"
             id="tspan3">POTTERY</tspan></tspan></text>
    </g>
  </g>
</svg>
